<?xml version="1.0" standalone="no"?>
<!DOCTYPE svg PUBLIC "-//W3C//DTD SVG 20010904//EN"
 "http://www.w3.org/TR/2001/REC-SVG-20010904/DTD/svg10.dtd">
<svg version="1.0" xmlns="http://www.w3.org/2000/svg"
 width="472.000000pt" height="472.000000pt" viewBox="0 0 472.000000 472.000000"
 preserveAspectRatio="xMidYMid meet">
<metadata>
Created by potrace 1.15, written by Peter Selinger 2001-2017
</metadata>
<g transform="translate(0.000000,472.000000) scale(0.100000,-0.100000)"
fill="#000000" stroke="none">
<path d="M2087 4655 c-767 -93 -1437 -563 -1786 -1254 -113 -224 -176 -415
-223 -681 -18 -104 -22 -163 -23 -355 0 -244 8 -330 51 -525 72 -323 233 -663
438 -924 307 -392 759 -688 1241 -811 217 -56 332 -69 585 -69 167 0 255 4
340 18 498 77 942 300 1291 646 383 380 612 854 675 1396 30 253 7 583 -56
829 -60 234 -186 517 -314 709 -385 574 -984 942 -1664 1021 -152 18 -406 18
-555 0z m638 -89 c326 -59 609 -169 860 -333 142 -93 214 -151 348 -282 203
-198 338 -385 456 -633 99 -207 157 -390 197 -618 25 -148 30 -458 10 -618
-75 -583 -368 -1110 -821 -1475 -469 -378 -1091 -557 -1672 -482 -775 101
-1425 570 -1758 1267 -88 185 -153 393 -192 613 -25 143 -25 549 0 690 42 237
98 415 198 623 113 237 229 402 423 600 181 185 370 324 593 436 240 121 459
185 778 230 77 11 494 -2 580 -18z"/>
<path d="M1897 4395 c-32 -7 -60 -14 -62 -17 -6 -5 50 -296 58 -304 10 -10
161 26 187 45 70 51 60 210 -16 270 -31 24 -77 26 -167 6z m137 -67 c19 -29
30 -99 22 -133 -4 -17 -18 -31 -41 -41 -67 -28 -70 -24 -92 86 -22 112 -25
107 54 109 34 1 46 -4 57 -21z"/>
<path d="M2264 4360 c-39 -16 -64 -59 -64 -112 0 -93 46 -136 137 -125 83 9
122 89 87 176 -24 62 -93 88 -160 61z"/>
<path d="M2542 4328 c-42 -46 -54 -116 -27 -168 19 -37 80 -59 114 -41 18 10
21 9 21 -7 0 -29 -34 -55 -61 -47 -13 4 -29 14 -37 21 -21 22 -62 18 -62 -6 0
-32 56 -60 122 -60 87 0 97 20 124 253 6 53 6 54 -21 61 -17 4 -31 3 -35 -4
-5 -7 -11 -6 -20 5 -20 24 -92 20 -118 -7z"/>
<path d="M2836 4299 c-3 -8 -17 -58 -31 -113 -28 -103 -26 -115 17 -116 17 0
22 12 44 103 8 34 41 58 69 51 17 -4 24 0 29 18 10 38 8 41 -34 35 -30 -4 -40
-2 -40 9 0 8 -4 14 -9 14 -5 0 -16 3 -25 6 -9 3 -18 0 -20 -7z"/>
<path d="M3025 4210 c-20 -22 -20 -22 13 -39 18 -10 26 -10 38 0 18 15 68 -4
61 -24 -3 -8 -25 -11 -74 -9 -64 3 -72 2 -87 -19 -39 -57 -6 -119 64 -119 22
0 40 -4 40 -8 0 -9 44 -32 61 -32 6 0 8 4 5 9 -3 5 8 41 24 81 17 40 30 85 30
101 0 62 -132 107 -175 59z"/>
<path d="M1489 4159 c-16 -17 -29 -26 -29 -20 0 8 -10 6 -29 -4 l-30 -15 46
-97 c25 -54 48 -102 52 -106 5 -4 19 -3 33 4 l26 11 -35 80 c-33 76 -34 81
-17 99 33 36 51 24 94 -61 39 -77 41 -79 65 -68 14 6 25 15 25 20 0 20 -72
164 -87 176 -32 23 -82 15 -114 -19z"/>
<path d="M3265 4038 c-33 -50 -61 -94 -63 -99 -2 -4 9 -14 24 -22 28 -14 28
-14 67 47 48 75 63 89 88 75 28 -15 23 -39 -21 -108 -22 -34 -40 -65 -40 -69
0 -12 40 -33 50 -27 5 3 26 32 46 65 38 62 65 80 89 60 22 -19 19 -29 -31
-103 -25 -38 -44 -70 -42 -71 52 -39 48 -41 99 38 26 41 50 83 53 94 15 46
-45 102 -94 89 -15 -4 -20 0 -20 14 0 27 -39 59 -72 59 -16 0 -27 4 -23 9 5 9
-31 41 -45 41 -3 0 -32 -41 -65 -92z"/>
<path d="M1230 4019 c-19 -12 -40 -29 -47 -38 -14 -18 -17 -60 -5 -78 11 -17
52 11 52 36 0 22 19 41 41 41 33 0 29 -18 -11 -60 -45 -47 -52 -83 -22 -120
13 -16 29 -23 52 -22 34 1 80 35 80 60 0 7 6 12 13 9 6 -2 24 4 38 14 l27 19
-29 32 c-16 18 -44 53 -62 78 -39 54 -74 62 -127 29z"/>
<path d="M2195 3979 c-263 -27 -513 -119 -745 -273 -142 -94 -341 -293 -433
-431 -256 -389 -341 -825 -247 -1272 29 -138 63 -233 140 -388 359 -725 1193
-1070 1979 -819 121 39 346 155 451 234 213 160 376 354 490 585 77 155 111
250 140 388 94 446 9 884 -246 1270 -93 140 -291 338 -434 433 -332 220 -706
314 -1095 273z m397 -54 c361 -54 662 -208 914 -467 205 -210 332 -436 404
-713 41 -159 54 -282 47 -453 -15 -412 -170 -767 -466 -1063 -235 -234 -498
-375 -824 -441 -161 -33 -433 -33 -594 0 -326 66 -589 207 -824 441 -192 193
-311 386 -392 636 -50 154 -68 257 -74 426 -9 235 28 448 116 664 186 454 599
815 1070 935 197 50 436 63 623 35z"/>
<path d="M2320 3649 c-70 -47 -226 -123 -325 -159 -137 -49 -277 -77 -498
-100 -111 -12 -212 -24 -224 -26 -23 -4 -23 -6 -23 -167 0 -1015 166 -1623
545 -2002 144 -144 323 -260 504 -325 77 -28 105 -23 251 46 495 234 782 691
885 1409 32 229 44 396 52 742 l6 292 -24 5 c-13 2 -115 14 -226 26 -221 23
-361 51 -498 100 -102 37 -245 106 -321 156 -28 19 -53 34 -55 34 -2 0 -24
-14 -49 -31z m124 -63 c95 -60 199 -106 332 -149 142 -46 237 -64 474 -90
l195 -22 3 -110 c4 -149 -15 -573 -34 -737 -80 -707 -297 -1149 -697 -1419
-90 -60 -212 -123 -302 -154 l-50 -18 -112 47 c-537 227 -838 728 -928 1546
-19 171 -37 580 -33 730 l3 115 195 22 c107 12 233 29 280 38 180 35 411 125
540 209 30 19 57 36 59 36 2 0 35 -20 75 -44z"/>
<path d="M2305 3554 c-139 -85 -361 -167 -546 -202 -57 -11 -178 -28 -268 -38
l-164 -18 6 -310 c10 -505 56 -837 159 -1134 154 -450 430 -750 827 -901 50
-19 52 -19 102 0 515 196 821 635 934 1342 32 198 46 389 52 693 l6 310 -164
18 c-348 37 -585 106 -800 232 -42 24 -78 44 -80 44 -2 0 -31 -16 -64 -36z
m96 -25 c51 -36 250 -126 351 -158 129 -41 269 -68 463 -89 l160 -18 3 -84 c5
-118 -15 -528 -33 -690 -81 -726 -324 -1178 -766 -1423 -36 -20 -98 -50 -137
-66 l-73 -30 -81 34 c-298 126 -533 354 -678 658 -160 335 -237 769 -243 1371
l-2 230 160 18 c208 23 343 50 486 98 109 36 289 119 334 154 25 19 22 20 56
-5z"/>
<path d="M2327 3487 l-38 -22 5 -70 c3 -38 8 -145 12 -237 l6 -168 58 0 57 0
7 168 c3 92 9 199 12 237 l5 70 -40 23 c-22 12 -41 22 -43 22 -2 -1 -20 -11
-41 -23z"/>
<path d="M2170 3410 c-35 -16 -66 -33 -68 -40 -3 -7 8 -95 24 -196 l28 -184
59 0 59 0 -6 63 c-3 34 -11 134 -17 222 -6 88 -11 161 -12 161 -1 1 -31 -11
-67 -26z"/>
<path d="M2500 3427 c0 -22 -19 -301 -25 -369 l-6 -68 58 0 59 0 28 185 c15
101 26 189 24 195 -5 17 -138 71 -138 57z"/>
<path d="M1970 3337 c-36 -11 -66 -20 -67 -21 -2 -2 32 -130 73 -273 l15 -53
60 0 c53 0 60 2 55 18 -2 9 -17 89 -32 177 -15 88 -30 163 -33 166 -3 3 -35
-3 -71 -14z"/>
<path d="M2695 3347 c-2 -7 -16 -82 -30 -167 -15 -85 -29 -163 -31 -172 -5
-16 2 -18 55 -18 l60 0 15 53 c41 143 75 271 73 273 -1 0 -33 10 -70 22 -48
14 -69 17 -72 9z"/>
<path d="M1763 3286 c-28 -6 -54 -14 -57 -17 -3 -3 18 -66 47 -140 l53 -134
66 -3 66 -3 -34 113 c-19 62 -39 132 -45 156 -12 46 -13 47 -96 28z"/>
<path d="M2881 3258 c-6 -24 -26 -94 -45 -156 l-34 -113 65 3 65 3 54 135 c30
74 51 137 46 141 -6 5 -113 29 -132 29 -4 0 -13 -19 -19 -42z"/>
<path d="M1523 3253 l-42 -4 32 -65 c31 -64 32 -64 73 -64 56 0 89 -13 109
-44 23 -34 7 -58 -47 -72 l-43 -12 78 -1 77 -1 -16 38 c-8 20 -34 81 -56 135
l-40 97 -42 -2 c-22 -1 -60 -3 -83 -5z"/>
<path d="M3052 3163 c-22 -54 -48 -115 -56 -135 l-16 -38 77 1 78 1 -43 12
c-106 28 -63 116 55 116 l49 0 31 64 31 63 -60 7 c-110 11 -101 17 -146 -91z"/>
<path d="M1400 3107 l0 -134 43 -59 42 -59 5 120 6 120 -41 72 c-22 40 -43 73
-47 73 -5 0 -8 -60 -8 -133z"/>
<path d="M3284 3167 l-41 -72 6 -120 6 -120 43 59 42 59 0 134 c0 73 -3 133
-7 133 -5 0 -26 -33 -49 -73z"/>
<path d="M1536 3074 c-14 -13 -16 -48 -16 -225 0 -202 1 -209 20 -209 19 0 20
7 20 184 0 204 -1 201 68 212 23 4 45 11 49 17 20 33 -110 52 -141 21z"/>
<path d="M3078 3079 c-33 -19 -20 -36 32 -43 34 -5 53 -13 60 -26 6 -10 10
-94 10 -194 0 -169 1 -176 20 -176 19 0 20 7 20 209 0 240 0 241 -78 241 -26
0 -55 -5 -64 -11z"/>
<path d="M1600 2730 l0 -220 770 0 770 0 0 220 0 220 -770 0 -770 0 0 -220z
m288 114 c26 -18 30 -75 7 -94 -14 -12 -13 -15 5 -35 26 -28 26 -77 -1 -101
-17 -15 -40 -20 -110 -22 l-89 -4 0 136 0 136 83 0 c59 0 89 -5 105 -16z m252
-119 l0 -135 -30 0 -30 0 0 135 0 135 30 0 30 0 0 -135z m120 63 l1 -73 30 38
c25 30 38 37 66 37 l34 0 -35 -43 -36 -44 40 -53 c22 -30 40 -55 40 -57 0 -2
-15 -3 -32 -3 -28 0 -38 8 -68 52 l-35 52 -3 -52 c-3 -50 -4 -52 -33 -52 l-29
0 0 135 0 135 30 0 30 0 0 -72z m728 24 c2 -16 10 -22 28 -22 17 0 24 -5 24
-20 0 -15 -7 -20 -25 -20 -24 0 -25 -3 -25 -55 0 -52 1 -55 25 -55 26 0 29 -7
19 -34 -4 -11 -18 -16 -43 -16 -57 0 -65 11 -69 89 -2 39 -8 71 -13 71 -5 0
-9 9 -9 20 0 11 5 20 10 20 6 0 10 7 10 15 0 16 36 36 55 31 6 -1 11 -12 13
-24z m-419 -27 c32 -16 41 -33 41 -76 l0 -29 -65 0 c-50 0 -65 -3 -65 -15 0
-23 38 -37 82 -30 37 7 39 6 36 -16 -3 -21 -9 -24 -55 -27 -64 -4 -106 16
-123 57 -39 95 59 183 149 136z m276 -5 c11 -9 15 -36 15 -101 l0 -89 -30 0
-30 0 0 70 c0 59 -3 71 -20 80 -43 23 -70 -21 -70 -117 0 -30 -3 -33 -30 -33
l-30 0 0 100 0 100 30 0 c17 0 30 -5 30 -11 0 -5 10 -3 23 6 25 18 88 15 112
-5z"/>
<path d="M1408 2773 c3 -54 8 -105 11 -114 5 -13 337 -396 593 -684 21 -23 29
-27 39 -18 9 9 -30 68 -170 262 l-183 251 -52 0 c-69 0 -86 18 -86 88 l0 52
-35 0 -35 0 0 73 c0 70 -2 77 -41 130 -22 32 -41 57 -43 57 -2 0 -1 -44 2 -97z"/>
<path d="M3291 2814 c-39 -55 -41 -61 -41 -131 l0 -73 -35 0 -35 0 0 -53 c0
-70 -18 -87 -88 -87 l-51 0 -178 -246 c-98 -135 -178 -250 -178 -256 0 -6 5
-13 10 -15 6 -2 150 155 320 349 l309 352 7 106 c3 58 5 106 3 108 -1 2 -20
-22 -43 -54z"/>
<path d="M1424 2555 c3 -16 8 -58 11 -91 l7 -62 273 -246 c151 -135 278 -246
284 -246 5 0 12 4 16 10 4 7 -447 513 -572 640 l-25 25 6 -30z"/>
<path d="M3017 2254 c-164 -178 -295 -329 -292 -334 3 -6 11 -10 17 -10 8 0
441 383 535 474 17 16 24 40 31 106 6 47 10 86 8 87 -1 1 -136 -144 -299 -323z"/>
<path d="M1837 2343 c237 -345 249 -362 263 -353 10 6 -18 64 -119 244 l-133
236 -49 0 -50 0 88 -127z"/>
<path d="M1900 2464 c0 -6 228 -443 237 -453 2 -3 8 0 15 7 12 12 14 9 -99
275 l-75 177 -39 0 c-21 0 -39 -3 -39 -6z"/>
<path d="M2020 2464 c0 -7 160 -416 166 -422 1 -2 9 -2 17 0 12 2 2 45 -48
213 l-62 210 -36 3 c-21 2 -37 0 -37 -4z"/>
<path d="M2133 2458 c2 -7 28 -101 57 -208 28 -107 54 -197 56 -199 2 -3 9 0
15 6 8 8 2 61 -20 190 -43 246 -35 223 -77 223 -25 0 -35 -4 -31 -12z"/>
<path d="M2240 2454 c0 -17 46 -317 56 -366 3 -16 12 -28 21 -28 13 0 14 10 9
63 -3 34 -8 107 -11 162 -10 178 -12 185 -46 185 -20 0 -29 -5 -29 -16z"/>
<path d="M2343 2328 c4 -79 7 -169 7 -200 0 -51 2 -58 20 -58 18 0 20 7 20 58
0 31 3 121 7 200 l6 142 -33 0 -33 0 6 -142z"/>
<path d="M2436 2438 c-3 -18 -8 -82 -11 -143 -3 -60 -8 -138 -11 -172 -5 -53
-4 -63 9 -63 9 0 18 12 21 28 9 44 56 352 56 368 0 9 -11 14 -30 14 -25 0 -30
-4 -34 -32z"/>
<path d="M2535 2448 c-2 -13 -19 -103 -36 -201 -22 -129 -28 -182 -20 -190 6
-6 13 -9 15 -6 2 2 27 91 56 197 28 107 54 200 57 208 4 10 -4 14 -31 14 -29
0 -37 -4 -41 -22z"/>
<path d="M2645 2458 c-3 -7 -31 -103 -64 -213 -41 -140 -55 -202 -47 -207 6
-4 14 -4 17 0 7 7 169 418 169 427 0 11 -71 4 -75 -7z"/>
<path d="M2745 2433 c-9 -21 -50 -120 -92 -221 -58 -138 -74 -185 -65 -194 6
-6 13 -10 15 -7 9 10 237 447 237 453 0 3 -18 6 -40 6 -37 0 -41 -3 -55 -37z"/>
<path d="M2759 2234 c-103 -184 -129 -238 -118 -244 7 -5 14 -8 15 -7 8 14
320 465 327 475 7 9 -2 12 -41 12 l-50 0 -133 -236z"/>
<path d="M1453 2318 c3 -10 9 -40 13 -67 3 -26 9 -53 13 -58 14 -22 472 -334
481 -328 5 3 10 10 10 15 0 7 -311 278 -504 439 -18 15 -19 15 -13 -1z"/>
<path d="M3028 2110 c-142 -121 -258 -224 -258 -229 0 -30 42 -7 252 140 128
89 235 163 237 165 3 3 30 144 27 144 -1 0 -117 -99 -258 -220z"/>
<path d="M1507 2063 l14 -58 198 -102 c109 -56 201 -99 205 -96 18 18 -12 42
-209 172 -119 77 -217 141 -219 141 -2 0 3 -26 11 -57z"/>
<path d="M3028 1982 c-113 -75 -210 -140 -213 -144 -4 -4 -5 -14 -1 -23 4 -13
43 3 205 87 l200 103 14 58 c8 31 12 57 8 56 -3 0 -99 -62 -213 -137z"/>
<path d="M2275 2028 c-118 -22 -245 -111 -316 -220 -35 -55 -62 -137 -74 -225
l-5 -43 485 0 485 0 0 49 c0 199 -182 401 -394 440 -69 13 -111 13 -181 -1z
m39 -229 c22 -18 26 -28 26 -75 0 -45 -4 -59 -25 -79 -28 -29 -42 -31 -73 -9
-27 19 -29 44 -2 44 11 0 20 -4 20 -10 0 -16 27 -12 34 5 4 11 -2 15 -24 15
-63 0 -78 88 -20 117 33 17 33 16 64 -8z m164 -2 c7 -6 12 -24 11 -41 -2 -17
1 -44 6 -60 7 -25 4 -33 -20 -53 -28 -25 -63 -25 -92 -1 -15 12 -17 64 -3 73
6 4 5 15 -2 30 -24 52 50 90 100 52z m162 -42 c0 -30 5 -55 10 -55 6 0 10 -7
10 -15 0 -8 -4 -15 -9 -15 -5 0 -11 -9 -14 -20 -3 -11 -13 -20 -22 -20 -9 0
-19 9 -22 20 -4 15 -14 20 -39 20 -36 0 -41 9 -22 43 38 72 59 97 83 97 24 0
25 -3 25 -55z"/>
<path d="M1541 1938 c0 -7 6 -28 13 -47 12 -33 18 -37 170 -93 87 -32 162 -55
167 -52 27 17 -6 40 -167 118 -97 47 -178 86 -180 86 -2 0 -4 -6 -3 -12z"/>
<path d="M3015 1865 c-127 -63 -170 -88 -170 -102 0 -10 5 -18 10 -18 6 0 78
24 162 54 130 47 153 58 162 80 17 46 23 71 14 70 -4 0 -84 -38 -178 -84z"/>
<path d="M1590 1800 c0 -5 7 -25 16 -43 16 -34 19 -35 138 -60 66 -14 121 -25
122 -24 1 1 4 11 6 21 2 16 -18 26 -139 67 -79 26 -143 43 -143 39z"/>
<path d="M3005 1760 c-120 -40 -139 -50 -137 -66 2 -10 5 -20 6 -21 1 -1 56
10 123 24 l122 26 16 40 c9 22 15 41 13 42 -2 1 -66 -19 -143 -45z"/>
<path d="M1755 1493 c74 -116 202 -243 325 -325 95 -62 257 -141 291 -141 34
0 194 78 289 142 125 84 253 211 325 324 l17 27 -632 0 -632 0 17 -27z"/>
<path d="M1013 3850 c-59 -36 -77 -105 -37 -144 22 -23 57 -20 115 9 45 23 50
24 56 9 9 -23 -34 -57 -62 -50 -15 4 -29 -1 -41 -15 -18 -20 -18 -21 1 -35 27
-20 57 -17 95 9 66 44 85 110 44 151 -22 23 -57 20 -114 -9 -59 -30 -60 -30
-60 -6 0 25 25 45 49 38 12 -3 28 4 41 18 22 23 22 23 2 34 -30 16 -53 14 -89
-9z"/>
<path d="M3654 3835 c-19 -15 -19 -15 4 -35 13 -10 30 -16 38 -13 15 5 54 -22
54 -39 0 -21 -31 -18 -67 6 -21 14 -50 26 -65 26 -63 0 -90 -79 -43 -125 13
-14 33 -25 45 -25 11 0 20 -6 20 -13 0 -8 11 -24 25 -37 15 -14 25 -18 25 -11
0 8 27 42 60 78 65 69 71 90 40 140 -33 55 -97 78 -136 48z"/>
<path d="M805 3634 c-14 -15 -25 -38 -25 -51 0 -24 0 -24 -40 8 l-41 33 -21
-22 c-14 -14 -19 -25 -13 -31 6 -5 61 -50 124 -101 l114 -92 21 22 21 21 -63
57 c-62 57 -75 85 -50 110 20 20 34 14 97 -38 33 -27 64 -50 69 -50 11 0 47
39 41 44 -2 2 -35 29 -74 60 -82 66 -120 73 -160 30z"/>
<path d="M3834 3621 c-95 -43 -112 -147 -34 -208 19 -15 96 -17 105 -2 10 15
-26 51 -46 46 -25 -7 -49 11 -49 37 0 25 43 70 76 80 29 9 57 -24 49 -56 -8
-31 30 -71 46 -48 32 50 13 116 -43 150 -40 24 -52 25 -104 1z"/>
<path d="M593 3478 c-5 -7 -13 -18 -17 -25 -4 -7 41 -48 120 -107 l126 -96 18
22 c11 13 19 26 20 29 0 7 -224 177 -244 185 -7 3 -17 -1 -23 -8z"/>
<path d="M3977 3378 c-53 -33 -97 -65 -97 -71 0 -7 7 -20 14 -30 13 -17 19
-15 98 34 130 81 120 71 100 101 l-18 27 -97 -61z"/>
<path d="M690 1381 c-69 -48 -125 -90 -125 -93 0 -3 24 -39 53 -81 58 -81 91
-103 141 -92 33 7 71 47 71 74 0 11 10 16 30 17 44 2 70 30 70 74 0 28 -13 56
-52 113 -28 43 -54 77 -57 77 -3 0 -62 -40 -131 -89z"/>
<path d="M3984 1435 c-16 -24 -15 -26 42 -92 33 -37 52 -64 44 -61 -8 3 -46
13 -84 23 l-68 19 -19 -25 c-10 -13 -19 -26 -19 -29 0 -3 60 -19 133 -35 l132
-30 0 -33 c0 -45 27 -61 49 -30 32 45 26 56 -107 221 -43 53 -80 97 -82 97 -3
0 -12 -11 -21 -25z"/>
<path d="M3765 1230 c-18 -20 -18 -21 4 -44 12 -13 19 -30 16 -39 -4 -10 1
-20 14 -27 14 -7 21 -7 21 0 0 20 22 9 83 -40 34 -27 65 -50 69 -50 4 0 22 13
40 29 31 28 32 31 16 47 -14 14 -20 15 -32 4 -13 -10 -24 -6 -70 31 -41 33
-51 47 -43 57 7 9 6 18 -6 29 -13 14 -19 14 -32 3 -13 -11 -18 -10 -33 4 -23
20 -25 20 -47 -4z"/>
<path d="M860 1081 l-85 -79 22 -23 22 -22 85 77 c86 78 86 78 68 101 -9 14
-19 24 -22 25 -3 0 -43 -36 -90 -79z"/>
<path d="M987 1012 c-59 -59 -107 -112 -107 -118 0 -12 38 -50 43 -43 1 3 51
55 111 116 108 111 110 112 91 133 -10 11 -21 20 -24 20 -4 0 -55 -48 -114
-108z"/>
<path d="M3722 1087 l-22 -24 88 -81 89 -81 21 22 22 23 -63 60 c-34 33 -74
70 -88 82 l-25 22 -22 -23z"/>
<path d="M1095 929 c-117 -146 -112 -136 -87 -161 l21 -21 26 31 c43 51 57 43
49 -26 -5 -50 -3 -59 14 -76 29 -26 38 -15 46 54 10 87 11 88 72 96 30 3 54
10 54 14 0 4 -12 15 -26 24 -20 14 -37 16 -81 10 l-56 -7 51 64 c48 59 50 64
35 81 -9 10 -21 18 -27 17 -6 0 -47 -45 -91 -100z"/>
<path d="M3603 971 c-64 -29 -90 -92 -57 -139 19 -28 57 -28 119 -1 36 16 50
18 59 9 16 -17 -36 -60 -64 -53 -12 3 -29 -2 -41 -13 -19 -17 -19 -19 -3 -31
32 -24 77 -15 121 22 22 19 44 46 47 60 6 25 -7 64 -28 77 -20 14 -66 8 -106
-12 -49 -25 -60 -25 -60 0 0 21 34 44 55 37 13 -6 55 19 55 32 0 6 -44 32 -53
31 -1 0 -21 -9 -44 -19z"/>
<path d="M3442 848 c-7 -7 -12 -23 -12 -36 0 -20 -3 -22 -14 -13 -18 15 -59
-3 -54 -23 6 -23 113 -185 123 -185 6 0 19 6 29 14 19 14 18 16 -17 74 -42 67
-45 90 -17 116 18 16 18 19 3 41 -17 27 -24 29 -41 12z"/>
<path d="M1302 764 c-29 -20 -62 -85 -62 -123 0 -60 83 -121 144 -105 42 10
50 29 18 44 -15 7 -35 12 -44 11 -28 -4 -58 18 -58 43 0 32 10 38 34 23 12 -8
42 -26 68 -41 l47 -27 15 30 c26 50 20 89 -18 127 -28 28 -41 34 -78 34 -24 0
-54 -7 -66 -16z"/>
<path d="M3198 704 c-101 -54 -49 -234 68 -234 57 0 114 51 114 102 0 28 0 28
-30 13 -16 -9 -30 -20 -30 -25 0 -5 -11 -17 -24 -25 -19 -13 -29 -14 -45 -5
-12 6 -21 15 -21 20 0 5 32 26 70 45 l71 36 -18 30 c-32 55 -99 74 -155 43z"/>
<path d="M1567 668 c-3 -7 -23 -56 -45 -109 l-40 -97 25 -11 c13 -6 28 -9 32
-6 5 2 18 31 31 64 24 65 49 95 76 89 37 -7 39 -33 7 -115 l-30 -78 26 -11
c14 -6 29 -9 33 -5 12 11 68 161 68 182 0 11 -11 31 -26 45 -20 21 -33 25 -65
22 -27 -2 -38 0 -35 8 2 6 -7 17 -20 23 -31 14 -31 14 -37 -1z"/>
<path d="M1855 611 c-4 -21 -13 -31 -25 -31 -10 0 -20 -9 -23 -20 -3 -13 0
-20 9 -20 18 0 18 -10 -5 -97 -14 -55 -16 -76 -7 -88 12 -16 71 -37 80 -27 11
11 6 35 -10 47 -15 10 -15 16 1 73 14 48 22 62 37 62 26 0 35 30 15 45 -13 9
-15 21 -11 44 5 24 3 31 -9 31 -8 0 -22 3 -30 6 -11 4 -17 -4 -22 -25z"/>
<path d="M3042 627 c-22 -10 -23 -15 -20 -94 2 -46 1 -83 -2 -83 -3 0 -24 30
-48 66 -41 63 -45 66 -75 60 -17 -3 -33 -8 -35 -11 -6 -6 146 -195 158 -195 5
0 20 4 34 10 26 10 26 10 26 135 0 69 -3 125 -7 124 -5 0 -18 -5 -31 -12z"/>
<path d="M2137 593 c-3 -5 -8 -62 -11 -128 -6 -109 -5 -123 13 -152 33 -53
136 -68 197 -28 29 19 40 63 49 193 l7 102 -35 0 -35 0 -7 -107 c-4 -65 -12
-117 -21 -130 -18 -29 -64 -30 -89 -3 -16 17 -17 32 -10 131 5 89 4 113 -7
120 -16 11 -45 12 -51 2z"/>
<path d="M2585 523 c-11 -3 -28 -12 -37 -21 -11 -9 -18 -11 -18 -4 0 16 -49
15 -56 -1 -2 -7 1 -60 8 -118 12 -97 15 -104 37 -107 35 -5 40 7 29 83 -11 83
-1 115 36 115 33 0 43 -21 51 -108 l8 -72 33 0 34 0 -6 43 c-25 177 -26 180
-74 189 -14 3 -34 3 -45 1z"/>
</g>
</svg>
